<svg width="49" height="48" viewBox="0 0 49 48" fill="none" xmlns="http://www.w3.org/2000/svg">
<path fill-rule="evenodd" clip-rule="evenodd" d="M0.5 24C0.5 10.7452 11.2452 0 24.5 0C37.7548 0 48.5 10.7452 48.5 24C48.5 37.2548 37.7548 48 24.5 48C11.2452 48 0.5 37.2548 0.5 24ZM28.4072 14.1615C29.3235 12.9786 30.0182 11.3066 29.7669 9.6C28.2692 9.70408 26.5186 10.6623 25.4972 11.9113C24.566 13.043 23.8007 14.7265 24.0996 16.3604C25.7369 16.4116 27.4268 15.4303 28.4072 14.1615ZM36.5 30.215C31.7343 28.4026 30.9707 21.6273 35.6871 19.0269C34.2485 17.2228 32.227 16.177 30.3187 16.177C27.7979 16.177 26.7321 17.3831 24.9815 17.3831C23.1767 17.3831 21.8055 16.1803 19.6262 16.1803C17.4848 16.1803 15.2054 17.4888 13.7602 19.7258C11.7288 22.8763 12.0753 28.7991 15.3696 33.8446C16.5471 35.6504 18.1203 37.6792 20.178 37.6974C22.0091 37.7155 22.5264 36.5227 25.0078 36.5095C27.4892 36.4946 27.9605 37.7122 29.7883 37.6924C31.8476 37.6759 33.5079 35.4274 34.6854 33.6216C35.5294 32.328 35.8448 31.6754 36.5 30.215Z" fill="black"/>
</svg>
