<svg width="49" height="50" viewBox="0 0 49 50" fill="none" xmlns="http://www.w3.org/2000/svg">
<path d="M0.5 25C0.5 11.7452 11.2452 1 24.5 1C37.7548 1 48.5 11.7452 48.5 25C48.5 38.2548 37.7548 49 24.5 49C11.2452 49 0.5 38.2548 0.5 25Z" fill="white" stroke="#EEEFF3"/>
<path d="M24.5001 18.6209C26.453 18.6209 27.7704 19.4645 28.5215 20.1694L31.4566 17.3036C29.6539 15.6281 27.3081 14.5996 24.5001 14.5996C20.4326 14.5996 16.9197 16.9338 15.2095 20.3312L18.5721 22.9427C19.4157 20.4352 21.7499 18.6209 24.5001 18.6209Z" fill="#EA4335"/>
<path d="M34.484 25.2307C34.484 24.3756 34.4147 23.7516 34.2644 23.1045H24.5V26.964H30.2316C30.116 27.9232 29.492 29.3676 28.1053 30.3383L31.3871 32.8805C33.3516 31.0663 34.484 28.3969 34.484 25.2307Z" fill="#4285F4"/>
<path d="M18.5837 27.0564C18.3641 26.4093 18.237 25.7159 18.237 24.9995C18.237 24.2831 18.3641 23.5897 18.5721 22.9426L15.2094 20.3311C14.5045 21.7408 14.1001 23.3239 14.1001 24.9995C14.1001 26.6751 14.5045 28.2582 15.2094 29.6679L18.5837 27.0564Z" fill="#FBBC05"/>
<path d="M24.5003 35.3998C27.3083 35.3998 29.6656 34.4753 31.3874 32.8806L28.1056 30.3384C27.2274 30.9509 26.0487 31.3784 24.5003 31.3784C21.7501 31.3784 19.4159 29.5642 18.5839 27.0566L15.2212 29.6682C16.9314 33.0655 20.4327 35.3998 24.5003 35.3998Z" fill="#34A853"/>
</svg>
